<?xml version="1.0" encoding="UTF-8"?><svg id="Layer_1" xmlns="http://www.w3.org/2000/svg" viewBox="0 0 1992 1992"><defs><style>.cls-1{fill:#fefdfd;}.cls-1,.cls-2,.cls-3{stroke-width:0px;}.cls-2{fill:#f23434;}.cls-3{fill:#f23535;}</style></defs><path class="cls-2" d="m1483.71,541.29c-14.93-25.5-53.62-27.8-68.88-4.95-9.76,14.6-15.95,30.93-15.93,49.02.04,29.36-1.44,58.8.28,88.05,5.63,95.49-.95,191.11,3.17,286.5,3.15,72.84-1.08,145.68,2.72,218.33,4.2,80.39,2.32,160.72,1.88,241.04-.34,62.21-19.82,120.16-49.56,174.63-.66,1.21-.92,2.63-1.84,5.34,15.93-1.41,25.99-12.33,36.28-20.74,24.8-20.27,43.84-45.3,58.21-74.41,19.74-40,9.41-68.5-18.26-95.42-3.03-2.95-7.5-4.77-5.62-10.07,1.88-5.32,6.79-4.04,10.87-4.51,17.51-2.02,32.59-8.85,43.87-22.77,2.15-2.66,7.45-5.57,4.31-9.07-3.73-4.16-5.95,1.55-8.75,3.59-7.13,5.2-13.4,11.41-22.15,14.58-15.11,5.48-28.34,1.75-41.11-6.14-3.75-2.32-6.85-5.67-4.33-10.58,2.09-4.07,6.26-3.78,10-3.36,37.69,4.23,54.34-7.79,60.75-44.36.57-3.24-.2-8.48,3.11-8.46,16.44.08,10.72-11.55,11.07-19.8,1.33-31.08-3.55-61.69-7.07-92.42-4.65-40.63-.9-78.62,31.76-108.96,26.37-24.5,76.89-21.82,92.65,10.06,8.22,16.63,6.9,38.59-7.17,56.51-8.8,11.21-26.79,15.19-40.99,9.46-3.44-1.39-6.76-3.44-9.63-5.79-5.16-4.22-8.86-10.03-3.49-15.74,5.19-5.51,8.52-.07,12.25,3.93,7.18,7.72,16.3,3.97,23.49.76,9.9-4.43,13.51-14.24,12.53-24.79-1.21-13.01-8.21-23.41-20.1-28.13-16.81-6.68-31.59-.98-44.27,11.35-13.4,13.04-21.09,28.44-21.54,47.36-.67,27.82.83,55.22,10.75,81.73,4.03,10.76,11.18,18.52,20.26,24.28,8.43,5.35,8.75,10.43.22,13.95-16.42,6.77-17.37,19.27-17.32,34.55.14,43.61-2.78,86.79-12.26,129.86-10.62,48.29-29.12,92.26-57.62,132.22-29.72,41.67-66.79,73.75-119.1,81.72-13.57,2.07-20.46,7.84-28.9,17.39-46.82,52.99-102.19,93.9-172.18,110.6-47.86,11.42-96.1,11.09-145.1,3.42-38.11-5.97-71.75-21.02-102.49-41.7-32.1-21.6-58.21-50.6-80.33-82.69-13.09-18.99-25.07-38.92-45.23-51.71-3.17-2.01-6.28-4.12-9.46-6.12-9.49-5.98-11.45-1.05-10.8,7.52,1.1,14.57,7.73,27.15,15.42,38.95,24.52,37.68,52.59,72.28,89.18,99.17,3.99,2.93,7.9,6.25,5.07,11.63-2.6,4.94-6.54,3.39-10.87,1.31-33.63-16.11-65.57-35.03-95.43-57.34-17.41-13.01-33.29-27.84-48.08-43.76-5.65-6.08-11.16-8.22-19.95-6.33-18.95,4.07-35.85-5.15-52.65-11.79-28.6-11.31-49.54-32.54-69.48-55.33-26.25-30.01-43.93-64.95-57.34-101.6-10.06-27.47-16.08-56.54-19.33-86.06-3.61-32.7-5.85-65.38-4.84-98.22.37-12.03-4.53-19.56-15.25-24.42-8.78-3.98-12.61-8.48-1.37-15.35,18.5-11.32,23.65-30.53,27.23-50.19,3.21-17.61,3.65-35.4,3.5-53.31-.22-27.12-13.68-46.01-35.41-60.03-10.06-6.49-29.14-4.2-37.89,3.75-12.89,11.72-16.08,23.4-10.22,37.4,5.85,13.97,23.99,18.66,34.53,8.39,3.47-3.39,6.61-6.45,10.58-3.09,4.74,4,3.47,9.12-.15,13.82-10.54,13.7-37.2,14.8-50.47,1.41-15.17-15.3-19.32-34.99-12.04-54.16,6.91-18.23,21.49-29.16,41.64-30.81,39.32-3.23,76.67,27.36,83.4,66.45,4.79,27.82,1.76,55.04-1.73,82.53-3.37,26.56-4.99,53.3-4.65,80.12.03,2.5.31,6.07,2.46,5.87,15.42-1.43,12.48,11.61,14.54,19.24,7.77,28.74,27.7,42.1,56.31,36.36,4.74-.95,10.04-2.25,12.39,3.19,2.78,6.45-2.63,9.5-7.24,11.79-23.29,11.53-36.66,10.35-59.75-9.43-3.6-3.09-6.01-7.64-12.36-4.54,12.81,18.95,29.63,30.83,52.93,32.17,3.9.22,7.93.19,9.2,4.8,1.22,4.4-2.03,6.37-4.98,9.06-21.8,19.92-35.14,43.96-27.67,74.07,5.19,20.92,16.63,39.59,29.43,57.08,15.65,21.38,34.84,39.01,56.82,53.74,7.56,5.07,15.61,8.05,26.55,8.91-27.1-42.93-43.02-88.32-51.62-136.5-5.87-32.89-10.17-66.05-10.21-99.35-.27-249.51.11-499.02.23-748.54.01-25.91-12.9-47.17-31.04-54.04-13.32-5.05-25-1.51-33.91,7.28-14.87,14.68-25.3,33.13-12.13,57.17,10.28,18.76,12.32,39.03,7.87,60-2.71,12.74-12.66,20.71-19.79,30.49-1.89,2.59-6.19,2.18-9.34.71-3.55-1.65-4.37-4.71-3.23-8.31,6.4-20.15-1.18-37.84-9.23-55.69-9.68-21.44-22.91-41.09-28.84-64.47-12.35-48.68-4.37-92.82,23.89-134.33,17.28-25.38,37.65-46.02,68.14-53.47,34.59-8.46,66.32-.51,94.71,20.47,29.36,21.69,51.19,50.74,75.77,77.23,35.1,37.82,68.72,77.97,116.44,101.52,13.61,6.72,27.58,12.33,43.34,11.06,4.07-.33,8.97-1.1,11.06,4.02,2.01,4.92-1.94,7.61-4.52,10.97-16.76,21.88-37.64,39.81-56.8,59.38-22.73,23.22-36.34,49.49-34.8,83.27,1.43,31.18,1.5,62.54.1,93.72-5.76,128.16.1,256.39-3.33,384.51-.97,36.32-2.1,72.67-1.88,108.98.31,51.27,12.45,100.31,40.08,143.55,37.52,58.71,92.17,94.72,160.5,108.47,63.25,12.73,123.61,3.5,179.38-29.55,33.78-20.02,60.2-47.84,80.86-81.34,23.95-38.84,34.67-81.97,42.42-126.17.48-2.77.32-5.66.33-8.49.1-91.66-1.92-183.37.77-274.95,4-136.25-1.1-272.51,3.06-408.65,1.18-38.72-2.7-78.03,7.12-116.73,11.21-44.17,33.11-80.14,73.24-102.09,37.12-20.3,77.55-26.98,116.45-6.55,53.99,28.37,66.66,95.98,36.69,140.68-12.01,17.92-41.1,28.57-59.96,22.64-17-5.35-31.59-25.39-29.35-40.31,3.34-22.15,18.3-35.92,39.61-36.5,1.81-.05,3.61-.32,6.97-.64Z"/><path class="cls-3" d="m1129.49,290.04c.56,11.03-3.18,21.44-4.65,32.1-.55,4-.71,10.15-6.99,11.09-6.32.95-7.42-4.54-9.76-8.49-1.68-2.83-3.66-5.48-5.41-8.27-7.15-11.39-16.57-19.97-30.8-17.45-11.47,2.03-22.2,18.75-22.28,32.91-.12,20.65,7.59,38.16,25.52,48.99,34.45,20.81,71.26,27.6,110.69,15.93,20.67-6.12,44.07-35.38,35.44-59.64-6.2-17.42-15.59-23.66-32.76-17.19-9.53,3.59-17.24,9.56-24.02,17.08-3.08,3.41-7.18,7.97-11,.82-7.34-13.74,8.17-61.13,22.31-69.29,14.5-8.37,29.41-7.01,43.33.14,9.71,4.99,12.4,1.85,16.17-6.81,8.75-20.09,23.55-34.83,44.45-42.32,11.3-4.05,15.17-.14,13.22,11.21-10.48,61.26-25.12,121.34-50.26,178.46-6.84,15.54-14.16,30.87-20.85,46.48-3.55,8.29-8.51,9.18-16.9,6.9-59.18-16.12-119.21-24.9-180.87-24.38-60.33.5-119.31,8.41-177.28,24.39-9.46,2.61-13.76.27-17.58-8.08-29.82-65.21-55.95-131.58-65.84-203.24-1.02-7.41-2.35-14.82-4.21-22.06-2.93-11.37,3.09-12.66,11.49-10.22,22.88,6.65,37.34,23.27,46.86,43.77,4.02,8.67,6.17,9.81,14.85,5.95,34.4-15.32,59.53-.08,63.81,37.57.95,8.38,3.72,16.53,2.78,25.15-.4,3.7.52,8.13-4.04,9.63-3.77,1.24-5.96-2.17-8.2-4.48-5.61-5.79-11.21-11.45-18.94-14.59-9.68-3.93-19.63-9.43-28.76-.03-8.97,9.23-13.33,20.63-9.92,33.66,7.05,26.95,31.42,46.2,61.94,46.73,28.9.5,57.29-3.94,82.89-18.78,20.72-12.01,40.63-47.66,18.57-77.03-9.36-12.47-28.84-10.44-40.7,5.02-3.71,4.83-6.58,10.34-9.54,15.7-1.94,3.52-3.93,6.66-8.56,5.85-3.93-.69-4.87-3.68-5.46-7.23-1.7-10.16-4.96-20.21-5.39-30.39-1.54-35.99,16.02-52.67,51.78-48.63,8.51.96,9.82-.36,10.91-8.38,2.86-20.97,10.77-39.79,27.82-53.76,8.9-7.29,16.04-8.64,25.75.31,16.21,14.94,24.74,33.03,27.1,54.22.85,7.64,2.45,8.55,10.19,7.61,29.53-3.58,45.34,5.37,51.32,27.69,1.32,4.93,1.21,10.24,1.76,15.38Z"/><path class="cls-3" d="m338.26,1434.59c.38-15.53-7.58-27.18-14.38-38.59-37.22-62.5-80.94-119.37-143.47-159.11-4.23-2.69-8.62-5.4-7.27-10.78,1.45-5.77,7.11-7.56,12.33-7.74,20.92-.73,39.79,7.91,57.87,16.21,34.42,15.8,65.84,36.77,94.67,61.69,32.72,28.28,58.67,61.08,71.61,102.75,2.69,8.65,4.48,9.92,9.91,3.08,6.26-7.89,15.83-9.94,24.02-14.28,8.14-4.32,12.21-1.76,11.59,8.25-1.2,19.49-2.15,39.19-1.6,58.52,1.06,37.39,6.28,74.49,18.12,110.47,13.25,40.29,35.02,73.54,72.93,94.38,7.36,4.04,15.74,6.2,23.59,9.37,4.17,1.68,7.98,4.23,6.28,9.46-1.73,5.31-5.82,4.19-10.46,3.56-51.97-7.07-94.27-34.8-134.99-64.66-56.89-41.72-105.41-92.26-146.48-149.57-14.63-20.42-29.26-41.21-36.85-65.95-2.15-7.01-1.71-12.66,3.09-16.65,6.33-5.27,8.57,3.19,12.18,5.75,23.96,16.99,44.87,39.15,77.31,43.83Z"/><path class="cls-3" d="m1658.89,1435.3c21.73-2.72,38.51-12.57,54.41-24.16,9.09-6.63,17.48-14.24,26.69-20.68,3.52-2.46,5.74-11.14,12.15-5.12,4.11,3.86,5.07,9.02,3.06,15.52-7.77,25.15-22.99,46.08-37.51,67.23-25.13,36.62-55.93,68.41-87.47,99.56-36.95,36.49-78.38,67.14-124.13,91.03-21.14,11.04-43.49,22.52-68.93,22.96-4.26.07-8.63,2.54-10.81-2.72-2.52-6.05,2-9.08,6.64-10.31,15.72-4.19,29.25-12.31,42.04-21.99,36.36-27.54,51-67.1,61.66-109.32,6.59-26.11,8.99-52.77,10.25-79.26.96-20.27-.69-40.92-1.54-61.38-.47-11.16,3.57-13.23,12.33-8.48,8.55,4.63,18.54,6.75,24.83,15.58,3.07,4.32,5.97,3.99,7.98-2.81,15.04-51.02,48.93-87.94,90.15-119.46,34.46-26.35,71.39-47.77,113.17-60.22,3.6-1.07,7.23-2.92,10.84-2.93,8.23-.03,18.72-2.47,22.35,7.44,3.37,9.19-7.23,11.12-12.41,14.63-65.49,44.33-111.13,105.35-147.48,174.24-3.21,6.09-5.18,12.83-8.27,20.66Z"/><path class="cls-3" d="m411.33,995.76c-10.8.07-22.73,1.87-27.35-11.56-4.01-11.67-1.84-22.85,8.56-30.26,10.65-7.58,22.84-8.57,34.42-1.92,23.19,13.33,36.28,47.1,29.11,72.8-1.8,6.45-5.95,12.67-11.5,12.22-7.85-.64-4.82-8.73-4.57-13.95.95-19.44-7.54-27.64-28.67-27.33Z"/><path class="cls-3" d="m1581.94,995.76c-19.97-.43-28.08,8.25-26.98,28.89.24,4.57,2.14,10.04-3.51,12.42-5.28,2.22-8.34-3.47-9.74-6.2-9.42-18.24-4.79-36.23,3.35-53.47,8.54-18.09,21.48-30.83,43.31-29.18,13.15.99,22.94,11.29,23.87,23.63,1.4,18.49-6.13,24.43-30.29,23.9Z"/><path class="cls-3" d="m527,969.27c-8.11,19.25-13.37,43.29-38.26,54.27-4.62,2.04-9.75,6.43-13.7.25-3.74-5.86.35-11.48,4.76-14.66,4.28-3.09,8.63-5.6,10.63-10.7,4.73-12.06,1.86-21.8-8.66-29.53-11.67-8.58-15.01-22.27-7.99-31.32,7.81-10.06,25.49-12.87,35.93-5.3,11.47,8.32,16.79,20.01,17.3,37Z"/><path class="cls-3" d="m1524.24,949.12c-.03,9.16-3.26,14.79-10.36,19.65-16.06,11-15.98,27.32-.53,39.06,5.26,4,9.93,9.11,6.65,15.24-4.45,8.35-10.87,1.96-15.75-.57-24.86-12.92-41.72-51.11-32.78-73.38,7.1-17.69,22.94-24.85,39.91-18.31,9.01,3.47,13.9,9.32,12.86,18.3Z"/><path class="cls-3" d="m568.41,1035.34c-.12,27.36-25.06,46.74-50.66,50.94-7.87,1.29-16.5,4.39-24.77.06-3.48-1.82-7.15-3.97-7.2-7.96-.06-4.49,4.51-6.11,7.97-6.87,6.87-1.5,13.6-2.7,20.12-5.85,10.67-5.15,13.48-12.59,8.5-22.92-3.44-7.13-5.49-14.24-1.33-21.48,5.06-8.8,11.82-16.61,23.06-14.85,12.77,2,24.48,16.96,24.32,28.92Z"/><path class="cls-3" d="m1426.19,1038.45c-.31-18.01,9.95-24.35,20.84-30.58,9.21-5.27,16.1.44,21.26,5.57,7.6,7.56,10.16,17.04,4.88,28.27-7,14.91.1,24.42,19.83,28.46,6.51,1.33,16.97.52,15.1,9.59-1.69,8.23-11.29,8.12-20,7.77-21.94-.89-39.28-9.54-53.03-26.29-6.26-7.62-6.99-16.99-8.88-22.79Z"/></svg>